<svg width="385" height="384" xmlns="http://www.w3.org/2000/svg" xmlns:xlink="http://www.w3.org/1999/xlink" xml:space="preserve" overflow="hidden"><g transform="translate(-191 -160)"><g><g><path d="M40.5174 0 202.587 0 202.587 20.2587 40.5174 20.2587Z" fill="#2A2015" transform="matrix(1 0 0 1.00013 260.107 174.115)"/><path d="M20.2587 20.2587 222.846 20.2587 222.846 40.5174 20.2587 40.5174Z" fill="#2A2015" transform="matrix(1 0 0 1.00013 260.107 174.115)"/><path d="M20.2587 40.5174 222.846 40.5174 222.846 60.7762 20.2587 60.7762Z" fill="#3A2A1A" transform="matrix(1 0 0 1.00013 260.107 174.115)"/><path d="M40.5174 60.7762 202.587 60.7762 202.587 81.0349 40.5174 81.0349Z" fill="#4A3828" transform="matrix(1 0 0 1.00013 260.107 174.115)"/><path d="M40.5174 60.7762 202.587 60.7762 202.587 162.07 40.5174 162.07Z" fill="#F5C9A0" transform="matrix(1 0 0 1.00013 260.107 174.115)"/><path d="M60.7762 60.7762 182.329 60.7762 182.329 81.0349 60.7762 81.0349Z" fill="#FDE8CC" transform="matrix(1 0 0 1.00013 260.107 174.115)"/><path d="M60.7762 101.294 101.294 101.294 101.294 121.552 60.7762 121.552Z" fill="#3A2A1A" transform="matrix(1 0 0 1.00013 260.107 174.115)"/><path d="M141.811 101.294 182.329 101.294 182.329 121.552 141.811 121.552Z" fill="#3A2A1A" transform="matrix(1 0 0 1.00013 260.107 174.115)"/><path d="M81.0349 101.294 101.294 101.294 101.294 121.552 81.0349 121.552Z" fill="#EEEEEE" transform="matrix(1 0 0 1.00013 260.107 174.115)"/><path d="M162.07 101.294 182.329 101.294 182.329 121.552 162.07 121.552Z" fill="#EEEEEE" transform="matrix(1 0 0 1.00013 260.107 174.115)"/><path d="M101.294 121.552 141.811 121.552 141.811 141.811 101.294 141.811Z" fill="#E8B080" transform="matrix(1 0 0 1.00013 260.107 174.115)"/><path d="M81.0349 141.811 162.07 141.811 162.07 162.07 81.0349 162.07Z" fill="#D4956A" transform="matrix(1 0 0 1.00013 260.107 174.115)"/><path d="M101.294 141.811 141.811 141.811 141.811 162.07 101.294 162.07Z" fill="#C47A50" transform="matrix(1 0 0 1.00013 260.107 174.115)"/><path d="M20.2587 101.294 40.5174 101.294 40.5174 141.811 20.2587 141.811Z" fill="#E8B080" transform="matrix(1 0 0 1.00013 260.107 174.115)"/><path d="M20.2587 141.811 40.5174 141.811 40.5174 162.07 20.2587 162.07Z" fill="#DDDDDD" transform="matrix(1 0 0 1.00013 260.107 174.115)"/><path d="M101.294 162.07 141.811 162.07 141.811 202.587 101.294 202.587Z" fill="#E8B080" transform="matrix(1 0 0 1.00013 260.107 174.115)"/><path d="M20.2587 202.587 222.846 202.587 222.846 222.846 20.2587 222.846Z" fill="#333333" transform="matrix(1 0 0 1.00013 260.107 174.115)"/><path d="M0 222.846 243.105 222.846 243.105 243.105 0 243.105Z" fill="#1A1A1A" transform="matrix(1 0 0 1.00013 260.107 174.115)"/><path d="M0 243.105 243.105 243.105 243.105 263.363 0 263.363Z" fill="#1A1A1A" transform="matrix(1 0 0 1.00013 260.107 174.115)"/><path d="M101.294 243.105 121.552 243.105 121.552 263.363 101.294 263.363Z" fill="#444444" transform="matrix(1 0 0 1.00013 260.107 174.115)"/><path d="M121.552 243.105 141.811 243.105 141.811 263.363 121.552 263.363Z" fill="#444444" transform="matrix(1 0 0 1.00013 260.107 174.115)"/><path d="M0 263.363 243.105 263.363 243.105 283.622 0 283.622Z" fill="#1A1A1A" transform="matrix(1 0 0 1.00013 260.107 174.115)"/><path d="M0 283.622 243.105 283.622 243.105 303.881 0 303.881Z" fill="#222222" transform="matrix(1 0 0 1.00013 260.107 174.115)"/><path d="M0 303.881 243.105 303.881 243.105 324.14 0 324.14Z" fill="#222222" transform="matrix(1 0 0 1.00013 260.107 174.115)"/><path d="M20.2587 324.14 222.846 324.14 222.846 344.398 20.2587 344.398Z" fill="#222222" transform="matrix(1 0 0 1.00013 260.107 174.115)"/><path d="M40.5174 344.398 202.587 344.398 202.587 364.657 40.5174 364.657Z" fill="#222222" transform="matrix(1 0 0 1.00013 260.107 174.115)"/><path d="M81.0349 202.587 162.07 202.587 162.07 222.846 81.0349 222.846Z" fill="#444444" transform="matrix(1 0 0 1.00013 260.107 174.115)"/></g></g></g></svg>